<svg width="200" height="200" viewBox="0 0 200 200" xmlns="http://www.w3.org/2000/svg">
  <!-- 背景圆形 -->
  <circle cx="100" cy="100" r="100" fill="#f8f9fa"/>
  
  <!-- 头部 -->
  <ellipse cx="100" cy="85" rx="45" ry="50" fill="#fdbcb4"/>
  
  <!-- 头发 -->
  <path d="M55 65 Q55 35 85 35 Q100 30 115 35 Q145 35 145 65 Q145 75 140 85 Q135 90 125 85 Q115 80 100 82 Q85 80 75 85 Q65 90 60 85 Q55 75 55 65 Z" fill="#8b4513"/>
  
  <!-- 刘海 -->
  <path d="M70 50 Q80 45 90 50 Q100 45 110 50 Q120 45 130 50 Q125 60 115 65 Q105 70 100 65 Q95 70 85 65 Q75 60 70 50 Z" fill="#8b4513"/>
  
  <!-- 左眼 -->
  <ellipse cx="85" cy="75" rx="8" ry="10" fill="white"/>
  <circle cx="85" cy="75" r="5" fill="#4a4a4a"/>
  <circle cx="87" cy="73" r="2" fill="white"/>
  
  <!-- 右眼 -->
  <ellipse cx="115" cy="75" rx="8" ry="10" fill="white"/>
  <circle cx="115" cy="75" r="5" fill="#4a4a4a"/>
  <circle cx="117" cy="73" r="2" fill="white"/>
  
  <!-- 眉毛 -->
  <path d="M78 65 Q85 62 92 65" stroke="#654321" stroke-width="2" fill="none" stroke-linecap="round"/>
  <path d="M108 65 Q115 62 122 65" stroke="#654321" stroke-width="2" fill="none" stroke-linecap="round"/>
  
  <!-- 鼻子 -->
  <ellipse cx="100" cy="85" rx="2" ry="3" fill="#f4a6a0"/>
  
  <!-- 嘴巴 -->
  <path d="M92 95 Q100 102 108 95" stroke="#e74c3c" stroke-width="2" fill="none" stroke-linecap="round"/>
  
  <!-- 脸颊红晕 -->
  <circle cx="70" cy="90" r="6" fill="#f8b2b2" opacity="0.6"/>
  <circle cx="130" cy="90" r="6" fill="#f8b2b2" opacity="0.6"/>
  
  <!-- 耳朵 -->
  <ellipse cx="55" cy="85" rx="8" ry="12" fill="#fdbcb4"/>
  <ellipse cx="145" cy="85" rx="8" ry="12" fill="#fdbcb4"/>
  
  <!-- 脖子 -->
  <rect x="90" y="130" width="20" height="15" fill="#fdbcb4"/>
  
  <!-- 衣服 -->
  <ellipse cx="100" cy="160" rx="35" ry="25" fill="#ffd700"/>
  
  <!-- 衣服装饰 -->
  <rect x="85" y="150" width="30" height="3" fill="#ffed4e"/>
</svg>
